<svg xmlns="http://www.w3.org/2000/svg" viewBox="0 0 460 340" font-family="sans-serif" font-size="12">
  <style>
    .label { font-size: 12px; fill: #222; }
    .axis { stroke: #333; stroke-width: 1.1; fill: none; }
    .curve { stroke: #c0392b; stroke-width: 1.8; fill: none; stroke-linejoin: round; }
    .dash { stroke: #c0392b; stroke-dasharray: 3 2; fill: none; }
    .pt { fill: #c0392b; }
    .note { font-size: 12px; fill: #c0392b; }
  </style>
  <defs>
    <marker id="axArrow" markerWidth="10" markerHeight="10" refX="7" refY="5" orient="auto"><polygon points="0 0, 10 5, 0 10" fill="#333"/></marker>
    <marker id="blArrow" markerWidth="10" markerHeight="10" refX="8" refY="5" orient="auto"><polygon points="0 0, 10 5, 0 10" fill="#2c3e50"/></marker>
  </defs>
<text class="label" x="40" y="80" font-size="13">绳上各质点：上下振动，波形向右传播</text>
<line x1="150" y1="112" x2="230" y2="112" stroke="#2c3e50" stroke-width="1.6" marker-end="url(#blArrow)"/>
<text class="label" x="235" y="116" fill="#2c3e50">u</text>
<line x1="40" y1="150" x2="300" y2="150" stroke="#999" stroke-dasharray="4 3"/>
<path d="M 40.0,150.0 L 50.8,139.6 L 61.7,130.0 L 72.5,121.7 L 83.3,115.4 L 94.2,111.4 L 105.0,110.0 L 115.8,111.4 L 126.7,115.4 L 137.5,121.7 L 148.3,130.0 L 159.2,139.6 L 170.0,150.0 L 180.8,160.4 L 191.7,170.0 L 202.5,178.3 L 213.3,184.6 L 224.2,188.6 L 235.0,190.0 L 245.8,188.6 L 256.7,184.6 L 267.5,178.3 L 278.3,170.0 L 289.2,160.4 L 300.0,150.0" class="curve"/>
<circle cx="40.0" cy="150.0" r="2.6" fill="#27ae60" stroke="#1e8449" stroke-width="0.8"/>
<circle cx="50.8" cy="139.6" r="2.6" fill="#27ae60" stroke="#1e8449" stroke-width="0.8"/>
<circle cx="61.7" cy="130.0" r="2.6" fill="#27ae60" stroke="#1e8449" stroke-width="0.8"/>
<circle cx="72.5" cy="121.7" r="2.6" fill="#27ae60" stroke="#1e8449" stroke-width="0.8"/>
<circle cx="83.3" cy="115.4" r="2.6" fill="#27ae60" stroke="#1e8449" stroke-width="0.8"/>
<circle cx="94.2" cy="111.4" r="2.6" fill="#27ae60" stroke="#1e8449" stroke-width="0.8"/>
<circle cx="105.0" cy="110.0" r="2.6" fill="#27ae60" stroke="#1e8449" stroke-width="0.8"/>
<circle cx="115.8" cy="111.4" r="2.6" fill="#27ae60" stroke="#1e8449" stroke-width="0.8"/>
<circle cx="126.7" cy="115.4" r="2.6" fill="#27ae60" stroke="#1e8449" stroke-width="0.8"/>
<circle cx="137.5" cy="121.7" r="2.6" fill="#27ae60" stroke="#1e8449" stroke-width="0.8"/>
<circle cx="148.3" cy="130.0" r="2.6" fill="#27ae60" stroke="#1e8449" stroke-width="0.8"/>
<circle cx="159.2" cy="139.6" r="2.6" fill="#27ae60" stroke="#1e8449" stroke-width="0.8"/>
<circle cx="170.0" cy="150.0" r="2.6" fill="#27ae60" stroke="#1e8449" stroke-width="0.8"/>
<circle cx="180.8" cy="160.4" r="2.6" fill="#27ae60" stroke="#1e8449" stroke-width="0.8"/>
<circle cx="191.7" cy="170.0" r="2.6" fill="#27ae60" stroke="#1e8449" stroke-width="0.8"/>
<circle cx="202.5" cy="178.3" r="2.6" fill="#27ae60" stroke="#1e8449" stroke-width="0.8"/>
<circle cx="213.3" cy="184.6" r="2.6" fill="#27ae60" stroke="#1e8449" stroke-width="0.8"/>
<circle cx="224.2" cy="188.6" r="2.6" fill="#27ae60" stroke="#1e8449" stroke-width="0.8"/>
<circle cx="235.0" cy="190.0" r="2.6" fill="#27ae60" stroke="#1e8449" stroke-width="0.8"/>
<circle cx="245.8" cy="188.6" r="2.6" fill="#27ae60" stroke="#1e8449" stroke-width="0.8"/>
<circle cx="256.7" cy="184.6" r="2.6" fill="#27ae60" stroke="#1e8449" stroke-width="0.8"/>
<circle cx="267.5" cy="178.3" r="2.6" fill="#27ae60" stroke="#1e8449" stroke-width="0.8"/>
<circle cx="278.3" cy="170.0" r="2.6" fill="#27ae60" stroke="#1e8449" stroke-width="0.8"/>
<circle cx="289.2" cy="160.4" r="2.6" fill="#27ae60" stroke="#1e8449" stroke-width="0.8"/>
<circle cx="300.0" cy="150.0" r="2.6" fill="#27ae60" stroke="#1e8449" stroke-width="0.8"/>
<line x1="40" y1="220" x2="300.0" y2="220" stroke="#c0392b" stroke-width="1"/>
<line x1="40" y1="214" x2="40" y2="226" stroke="#c0392b"/>
<line x1="300.0" y1="214" x2="300.0" y2="226" stroke="#c0392b"/>
<text class="note" x="170.0" y="236" text-anchor="middle" fill="#c0392b">λ</text>
<line x1="285" y1="100" x2="430" y2="100" class="axis" marker-end="url(#axArrow)"/>
<line x1="285" y1="135" x2="285" y2="75" class="axis" marker-end="url(#axArrow)"/>
<text class="label" x="433" y="104">t</text>
<text class="label" x="289" y="72">x</text>
<path d="M 285.0,100.0 L 288.5,96.1 L 292.0,92.3 L 295.5,88.7 L 299.0,85.3 L 302.5,82.3 L 306.0,79.8 L 309.5,77.7 L 313.0,76.2 L 316.5,75.3 L 320.0,75.0 L 323.5,75.3 L 327.0,76.2 L 330.5,77.7 L 334.0,79.8 L 337.5,82.3 L 341.0,85.3 L 344.5,88.7 L 348.0,92.3 L 351.5,96.1 L 355.0,100.0 L 358.5,103.9 L 362.0,107.7 L 365.5,111.3 L 369.0,114.7 L 372.5,117.7 L 376.0,120.2 L 379.5,122.3 L 383.0,123.8 L 386.5,124.7 L 390.0,125.0 L 393.5,124.7 L 397.0,123.8 L 400.5,122.3 L 404.0,120.2 L 407.5,117.7 L 411.0,114.7 L 414.5,111.3 L 418.0,107.7 L 421.5,103.9 L 425.0,100.0" class="curve"/>
<text class="label" x="435" y="118" font-size="11" fill="#666">y-t</text>
</svg>
